:FULLY-SPECIFIED
:FORCE-ALL-JOINTS-BE-3DOF
:DEGREES
3160
root 0.956625 16.9241 -33.363 1086.05 5.17884 -3.83956
lfemur -18.6183 -2.41319 -8.24394
ltibia 35.1941 0 0
lfoot -16.4463 7.4433 0
ltoes -40.2815 0 0
rfemur -19.4902 -0.253348 18.5188
rtibia 39.1437 0 0
rfoot -12.2171 -21.0705 0
rtoes -16.395 0 0
lowerback 5.75866 1.53279 -0.489476
upperback -4.0423 2.14598 1.88213
thorax -7.56424 1.13733 1.98807
lowerneck -5.38721 -5.12694 -7.89224
upperneck 9.28379 -6.77097 5.96615
head 4.12632 -3.32943 2.73536
lclavicle -2.449e-14 -3.70603e-15 0
lhumerus -33.1672 -18.4832 94.8574
lradius 51.125 0 0
lwrist -8.89258 0 0
lhand -33.8346 389.922 0
lfingers 7.12502 0 0
lthumb -7.40556 -660.338 0
rclavicle -8.89528e-15 -1.46438e-14 0
rhumerus -35.5315 14.0446 -81.401
rradius 51.1 0 0
rwrist 0.724766 0 0
rhand -28.918 -394.055 0
rfingers 7.12502 0 0
rthumb -2.35336 296.078 0
3161
root 0.964197 16.9266 -33.3574 1086.06 5.10726 -3.87113
lfemur -18.5549 -2.40597 -8.25177
ltibia 35.1532 0 0
lfoot -16.4358 7.52406 0
ltoes -40.3506 0 0
rfemur -19.441 -0.225056 18.5209
rtibia 39.06 0 0
rfoot -12.1958 -21.0287 0
rtoes -16.406 0 0
lowerback 5.70869 1.53203 -0.496752
upperback -4.04946 2.14444 1.88654
thorax -7.54327 1.13711 1.99809
lowerneck -5.40616 -5.11279 -7.91704
upperneck 9.33702 -6.75127 5.97568
head 4.14543 -3.31987 2.74266
lclavicle -2.24462e-14 -3.02777e-15 0
lhumerus -33.1139 -18.2792 94.7752
lradius 50.623 0 0
lwrist -9.09582 0 0
lhand -33.8359 389.954 0
lfingers 7.12502 0 0
lthumb -7.39382 -660.314 0
rclavicle -8.49614e-15 -1.52125e-14 0
rhumerus -35.5189 13.8041 -81.3969
rradius 50.5881 0 0
rwrist 0.881415 0 0
rhand -28.8692 -394 0
rfingers 7.12502 0 0
rthumb -2.29234 296.115 0
3162
root 0.970484 16.9294 -33.3526 1086.05 5.01551 -3.90957
lfemur -18.4916 -2.39876 -8.25959
ltibia 35.1122 0 0
lfoot -16.4252 7.60483 0
ltoes -40.4196 0 0
rfemur -19.3917 -0.196764 18.5229
rtibia 38.9763 0 0
rfoot -12.1744 -20.9869 0
rtoes -16.4169 0 0
lowerback 5.67843 1.52518 -0.505555
upperback -4.04297 2.13512 1.90092
thorax -7.51929 1.13332 2.02007
lowerneck -5.48157 -5.11066 -7.91935
upperneck 9.43194 -6.74278 5.94227
head 4.18525 -3.31622 2.73072
lclavicle -2.04024e-14 -2.34951e-15 0
lhumerus -33.0606 -18.0753 94.693
lradius 50.121 0 0
lwrist -9.29907 0 0
lhand -33.8373 389.987 0
lfingers 7.12502 0 0
lthumb -7.38209 -660.29 0
rclavicle -8.097e-15 -1.57813e-14 0
rhumerus -35.5062 13.5637 -81.3928
rradius 50.0761 0 0
rwrist 1.03806 0 0
rhand -28.8204 -393.946 0
rfingers 7.12502 0 0
rthumb -2.23131 296.152 0
3163
root 0.976838 16.9318 -33.3486 1086.05 4.95361 -3.97401
lfemur -18.4282 -2.39154 -8.26742
ltibia 35.0713 0 0
lfoot -16.4146 7.6856 0
ltoes -40.4886 0 0
rfemur -19.3424 -0.168471 18.525
rtibia 38.8926 0 0
rfoot -12.1531 -20.9451 0
rtoes -16.4279 0 0
lowerback 5.63591 1.54021 -0.480739
upperback -4.04176 2.15753 1.90516
thorax -7.49342 1.1431 2.00884
lowerneck -5.4761 -5.10736 -7.88618
upperneck 9.48197 -6.74014 5.90858
head 4.19711 -3.31557 2.715
lclavicle -1.83586e-14 -1.67125e-15 0
lhumerus -33.0073 -17.8713 94.6107
lradius 49.6191 0 0
lwrist -9.50231 0 0
lhand -33.8387 390.019 0
lfingers 7.12502 0 0
lthumb -7.37035 -660.266 0
rclavicle -7.69786e-15 -1.635e-14 0
rhumerus -35.4935 13.3233 -81.3887
rradius 49.5642 0 0
rwrist 1.19471 0 0
rhand -28.7281 -393.877 0
rfingers 7.12502 0 0
rthumb -2.17028 296.189 0
3164
root 0.982488 16.934 -33.3447 1086.03 4.86449 -4.03701
lfemur -18.3649 -2.38433 -8.27525
ltibia 35.0303 0 0
lfoot -16.404 7.76636 0
ltoes -40.5576 0 0
rfemur -19.2932 -0.140179 18.5271
rtibia 38.8089 0 0
rfoot -12.1317 -20.9033 0
rtoes -16.4388 0 0
lowerback 5.61533 1.56728 -0.466929
upperback -4.04674 2.19575 1.91473
thorax -7.48831 1.1615 2.0069
lowerneck -5.45113 -5.10275 -7.87113
upperneck 9.53739 -6.73657 5.88337
head 4.2082 -3.31503 2.70529
lclavicle -1.63148e-14 -9.92993e-16 0
lhumerus -32.954 -17.6674 94.5285
lradius 49.1171 0 0
lwrist -9.70556 0 0
lhand -33.8401 390.051 0
lfingers 7.12502 0 0
lthumb -7.35861 -660.242 0
rclavicle -8.10306e-15 -1.57652e-14 0
rhumerus -35.4809 13.0829 -81.3846
rradius 49.0523 0 0
rwrist 1.35136 0 0
rhand -28.6358 -393.809 0
rfingers 7.12502 0 0
rthumb -2.10926 296.226 0
3165
root 0.98914 16.9376 -33.3399 1086.02 4.80146 -4.03984
lfemur -18.3015 -2.37711 -8.28308
ltibia 34.9893 0 0
lfoot -16.3935 7.84713 0
ltoes -40.5135 0 0
rfemur -19.2439 -0.111887 18.5291
rtibia 38.7253 0 0
rfoot -12.1103 -20.8615 0
rtoes -16.4498 0 0
lowerback 5.58162 1.59847 -0.485035
upperback -4.04853 2.23384 1.88638
thorax -7.4717 1.18029 1.9834
lowerneck -5.47683 -5.09546 -7.79372
upperneck 9.60954 -6.72836 5.82295
head 4.2292 -3.31088 2.67371
lclavicle -1.4271e-14 -3.14733e-16 0
lhumerus -32.9007 -17.4634 94.4463
lradius 48.6773 0 0
lwrist -9.90881 0 0
lhand -33.8415 390.083 0
lfingers 7.12502 0 0
lthumb -7.34687 -660.217 0
rclavicle -8.50827e-15 -1.51805e-14 0
rhumerus -35.4682 12.8425 -81.3806
rradius 48.5404 0 0
rwrist 1.46197 0 0
rhand -28.5436 -393.74 0
rfingers 7.12502 0 0
rthumb -2.04823 296.263 0
3166
root 0.99536 16.9401 -33.3352 1086.02 4.71379 -4.05197
lfemur -18.2382 -2.3699 -8.29091
ltibia 34.9484 0 0
lfoot -16.3829 7.92789 0
ltoes -40.4694 0 0
rfemur -19.1947 -0.0835946 18.5312
rtibia 38.6416 0 0
rfoot -12.089 -20.8197 0
rtoes -16.4607 0 0
lowerback 5.54675 1.61555 -0.502898
upperback -4.04854 2.25432 1.87702
thorax -7.45262 1.19096 1.98196
lowerneck -5.4805 -5.06918 -7.81748
upperneck 9.64549 -6.69637 5.86581
head 4.24071 -3.29384 2.69248
lclavicle -1.22271e-14 3.63526e-16 0
lhumerus -32.8474 -17.2594 94.3641
lradius 48.2375 0 0
lwrist -10.1121 0 0
lhand -33.8429 390.116 0
lfingers 7.12502 0 0
lthumb -7.33514 -660.193 0
rclavicle -8.91347e-15 -1.45957e-14 0
rhumerus -35.4556 12.6021 -81.3765
rradius 48.0285 0 0
rwrist 1.57257 0 0
rhand -28.4513 -393.671 0
rfingers 7.12502 0 0
rthumb -1.9872 296.3 0
3167
root 1.00086 16.941 -33.3309 1086.01 4.6237 -4.06754
lfemur -18.1748 -2.36268 -8.29874
ltibia 34.9074 0 0
lfoot -16.3723 8.00866 0
ltoes -40.4253 0 0
rfemur -19.1454 -0.0553023 18.5332
rtibia 38.5579 0 0
rfoot -12.0676 -20.7779 0
rtoes -16.4717 0 0
lowerback 5.47626 1.60704 -0.535015
upperback -4.04994 2.24071 1.89203
thorax -7.4146 1.18634 2.01918
lowerneck -5.39547 -5.05054 -7.86136
upperneck 9.68777 -6.67559 5.87262
head 4.23967 -3.28638 2.70475
lclavicle -1.01833e-14 1.04179e-15 0
lhumerus -32.7941 -17.0555 94.2819
lradius 47.7977 0 0
lwrist -10.3153 0 0
lhand -33.8442 390.148 0
lfingers 7.12502 0 0
lthumb -7.3234 -660.169 0
rclavicle -9.31868e-15 -1.4011e-14 0
rhumerus -35.4429 12.3617 -81.3724
rradius 47.5166 0 0
rwrist 1.68318 0 0
rhand -28.359 -393.603 0
rfingers 7.12502 0 0
rthumb -1.92618 296.338 0
3168
root 1.00632 16.945 -33.3264 1085.99 4.53362 -4.10831
lfemur -18.1114 -2.35547 -8.30657
ltibia 34.8665 0 0
lfoot -16.3617 8.08943 0
ltoes -40.3812 0 0
rfemur -19.0962 -0.02701 18.5353
rtibia 38.4742 0 0
rfoot -12.0463 -20.7361 0
rtoes -16.4826 0 0
lowerback 5.50048 1.63239 -0.519456
upperback -4.03163 2.27557 1.88797
thorax -7.40973 1.20235 2.00152
lowerneck -5.56768 -5.04407 -7.86648
upperneck 9.82953 -6.65902 5.87122
head 4.31057 -3.27569 2.70102
lclavicle -8.1395e-15 1.72004e-15 0
lhumerus -32.7408 -16.8515 94.1997
lradius 47.3578 0 0
lwrist -10.4917 0 0
lhand -33.8456 390.18 0
lfingers 7.12502 0 0
lthumb -7.31166 -660.145 0
rclavicle -9.72388e-15 -1.34262e-14 0
rhumerus -35.4302 12.1212 -81.3683
rradius 47.0047 0 0
rwrist 1.79378 0 0
rhand -28.2667 -393.534 0
rfingers 7.12502 0 0
rthumb -1.86515 296.375 0
3169
root 1.01259 16.9476 -33.322 1085.99 4.4431 -4.07932
lfemur -18.0481 -2.34825 -8.31439
ltibia 34.8255 0 0
lfoot -16.3511 8.17019 0
ltoes -40.3371 0 0
rfemur -19.0469 0.00128225 18.5373
rtibia 38.3906 0 0
rfoot -12.0249 -20.6943 0
rtoes -16.4666 0 0
lowerback 5.49667 1.65743 -0.562342
upperback -4.0424 2.30388 1.86308
thorax -7.42094 1.21785 1.99601
lowerneck -5.5805 -5.06113 -7.85302
upperneck 9.88054 -6.68341 5.862
head 4.32922 -3.28752 2.69371
lclavicle -6.09568e-15 2.3983e-15 0
lhumerus -32.6875 -16.6476 94.1175
lradius 46.918 0 0
lwrist -10.6682 0 0
lhand -33.847 390.212 0
lfingers 7.12502 0 0
lthumb -7.29992 -660.121 0
rclavicle -1.01291e-14 -1.28415e-14 0
rhumerus -35.4176 11.8808 -81.3642
rradius 46.4927 0 0
rwrist 1.90439 0 0
rhand -28.1745 -393.465 0
rfingers 7.12502 0 0
rthumb -1.80413 296.412 0
3170
root 1.01845 16.9504 -33.317 1085.99 4.33807 -4.09201
lfemur -17.9847 -2.34104 -8.32222
ltibia 34.7846 0 0
lfoot -16.3406 8.25096 0
ltoes -40.293 0 0
rfemur -18.9977 0.0295745 18.5394
rtibia 38.3069 0 0
rfoot -12.0036 -20.6524 0
rtoes -16.4506 0 0
lowerback 5.4673 1.69815 -0.560259
upperback -4.02867 2.35661 1.83871
thorax -7.39019 1.24273 1.96377
lowerneck -5.66258 -5.04787 -7.83284
upperneck 9.93729 -6.66522 5.87611
head 4.35871 -3.27576 2.69367
lclavicle -4.05186e-15 3.07656e-15 0
lhumerus -32.6341 -16.4436 94.0353
lradius 46.4782 0 0
lwrist -10.8446 0 0
lhand -33.8484 390.245 0
lfingers 7.12502 0 0
lthumb -7.28819 -660.097 0
rclavicle -1.05343e-14 -1.22567e-14 0
rhumerus -35.4049 11.6404 -81.3602
rradius 45.9808 0 0
rwrist 2.01499 0 0
rhand -28.0822 -393.397 0
rfingers 7.12502 0 0
rthumb -1.7431 296.449 0
3171
root 1.02365 16.9538 -33.3125 1085.99 4.24369 -4.09687
lfemur -17.9214 -2.33382 -8.33005
ltibia 34.7436 0 0
lfoot -16.33 8.33172 0
ltoes -40.2489 0 0
rfemur -18.9484 0.0578668 18.5415
rtibia 38.2232 0 0
rfoot -11.9822 -20.6106 0
rtoes -16.4346 0 0
lowerback 5.43609 1.70464 -0.589096
upperback -4.03089 2.36286 1.84141
thorax -7.3761 1.24737 1.98285
lowerneck -5.71143 -5.03218 -7.83486
upperneck 10.0156 -6.64035 5.8502
head 4.38824 -3.26419 2.68596
lclavicle -2.00804e-15 3.75482e-15 0
lhumerus -32.5808 -16.2397 93.9531
lradius 46.0384 0 0
lwrist -11.021 0 0
lhand -33.8498 390.277 0
lfingers 7.12502 0 0
lthumb -7.27645 -660.073 0
rclavicle -1.09395e-14 -1.16719e-14 0
rhumerus -35.3923 11.4 -81.3561
rradius 45.4689 0 0
rwrist 2.1256 0 0
rhand -27.9899 -393.328 0
rfingers 7.12502 0 0
rthumb -1.65092 296.466 0
3172
root 1.02901 16.9574 -33.3061 1086.01 4.1357 -4.07928
lfemur -17.858 -2.32661 -8.33788
ltibia 34.7027 0 0
lfoot -16.3194 8.41249 0
ltoes -40.2048 0 0
rfemur -18.8992 0.0861591 18.5435
rtibia 38.1395 0 0
rfoot -11.9609 -20.5688 0
rtoes -16.4186 0 0
lowerback 5.34506 1.70258 -0.628556
upperback -4.0343 2.35587 1.83473
thorax -7.32797 1.2457 2.00123
lowerneck -5.68994 -5.03185 -7.85583
upperneck 10.0787 -6.64272 5.8578
head 4.40503 -3.26622 2.6916
lclavicle 3.57815e-17 4.43308e-15 0
lhumerus -32.5275 -16.0357 93.8709
lradius 45.5986 0 0
lwrist -11.1974 0 0
lhand -33.8512 390.309 0
lfingers 7.12502 0 0
lthumb -7.26471 -660.049 0
rclavicle -1.13447e-14 -1.10872e-14 0
rhumerus -35.3796 11.1596 -81.352
rradius 44.957 0 0
rwrist 2.2362 0 0
rhand -27.8976 -393.259 0
rfingers 7.12502 0 0
rthumb -1.55874 296.482 0
